<svg xmlns="http://www.w3.org/2000/svg" xmlns:xlink="http://www.w3.org/1999/xlink" contentStyleType="text/css" height="1375px" preserveAspectRatio="none" style="width:1559px;height:1375px;background:#DDDDDD;" version="1.1" viewBox="0 0 1559 1375" width="1559px" zoomAndPan="magnify"><defs/><g><rect fill="#DDDDDD" height="1375" style="stroke:none;stroke-width:1.0;" width="1559" x="0" y="0"/><!--cluster 1 ? You write--><g id="cluster_1 &#183; You write"><path d="M245,6 L324.751,6 A3.75,3.75 0 0 1 327.251,8.5 L334.251,24.8047 L648,24.8047 A2.5,2.5 0 0 1 650.5,27.3047 L650.5,98.5 A2.5,2.5 0 0 1 648,101 L245,101 A2.5,2.5 0 0 1 242.5,98.5 L242.5,8.5 A2.5,2.5 0 0 1 245,6 " fill="#FDF6F3" style="stroke:#DCDFE8;stroke-width:1.5;"/><line style="stroke:#DCDFE8;stroke-width:1.5;" x1="242.5" x2="334.251" y1="24.8047" y2="24.8047"/><text fill="#6B739C" font-family="Helvetica" font-size="11" font-weight="bold" lengthAdjust="spacing" textLength="78.751" x="246.5" y="18.2104">1 &#183; You write</text></g><!--cluster 2 ? The only thing you own--><g id="cluster_2 &#183; The only thing you own"><path d="M239,134 L404.6079,134 A3.75,3.75 0 0 1 407.1079,136.5 L414.1079,152.8047 L660,152.8047 A2.5,2.5 0 0 1 662.5,155.3047 L662.5,226.5 A2.5,2.5 0 0 1 660,229 L239,229 A2.5,2.5 0 0 1 236.5,226.5 L236.5,136.5 A2.5,2.5 0 0 1 239,134 " fill="#FDF6F3" style="stroke:#DCDFE8;stroke-width:1.5;"/><line style="stroke:#DCDFE8;stroke-width:1.5;" x1="236.5" x2="414.1079" y1="152.8047" y2="152.8047"/><text fill="#6B739C" font-family="Helvetica" font-size="11" font-weight="bold" lengthAdjust="spacing" textLength="164.6079" x="240.5" y="146.2104">2 &#183; The only thing you own</text></g><!--cluster 3 ? The tool proposes--><g id="cluster_3 &#183; The tool proposes"><path d="M476,339 L607.9312,339 A3.75,3.75 0 0 1 610.4312,341.5 L617.4312,357.8047 L1293,357.8047 A2.5,2.5 0 0 1 1295.5,360.3047 L1295.5,431.5 A2.5,2.5 0 0 1 1293,434 L476,434 A2.5,2.5 0 0 1 473.5,431.5 L473.5,341.5 A2.5,2.5 0 0 1 476,339 " fill="#F7F4FC" style="stroke:#DCDFE8;stroke-width:1.5;"/><line style="stroke:#DCDFE8;stroke-width:1.5;" x1="473.5" x2="617.4312" y1="357.8047" y2="357.8047"/><text fill="#6B739C" font-family="Helvetica" font-size="11" font-weight="bold" lengthAdjust="spacing" textLength="130.9312" x="477.5" y="351.2104">3 &#183; The tool proposes</text></g><!--cluster 4 ? Nothing lands without a decision--><g id="cluster_4 &#183; Nothing lands without a decision"><path d="M619,535 L844.0068,535 A3.75,3.75 0 0 1 846.5068,537.5 L853.5068,553.8047 L902,553.8047 A2.5,2.5 0 0 1 904.5,556.3047 L904.5,629.5 A2.5,2.5 0 0 1 902,632 L619,632 A2.5,2.5 0 0 1 616.5,629.5 L616.5,537.5 A2.5,2.5 0 0 1 619,535 " fill="#F3EDFB" style="stroke:#DCDFE8;stroke-width:1.5;"/><line style="stroke:#DCDFE8;stroke-width:1.5;" x1="616.5" x2="853.5068" y1="553.8047" y2="553.8047"/><text fill="#6B739C" font-family="Helvetica" font-size="11" font-weight="bold" lengthAdjust="spacing" textLength="224.0068" x="620.5" y="547.2104">4 &#183; Nothing lands without a decision</text></g><!--cluster 5 ? Regenerated, never edited--><g id="cluster_5 &#183; Regenerated, never edited"><path d="M596,680 L783.3716,680 A3.75,3.75 0 0 1 785.8716,682.5 L792.8716,698.8047 L925,698.8047 A2.5,2.5 0 0 1 927.5,701.3047 L927.5,1018.5 A2.5,2.5 0 0 1 925,1021 L596,1021 A2.5,2.5 0 0 1 593.5,1018.5 L593.5,682.5 A2.5,2.5 0 0 1 596,680 " fill="#F2F5FB" style="stroke:#DCDFE8;stroke-width:1.5;"/><line style="stroke:#DCDFE8;stroke-width:1.5;" x1="593.5" x2="792.8716" y1="698.8047" y2="698.8047"/><text fill="#6B739C" font-family="Helvetica" font-size="11" font-weight="bold" lengthAdjust="spacing" textLength="186.3716" x="597.5" y="692.2104">5 &#183; Regenerated, never edited</text></g><!--entity obsidian--><g id="elem_obsidian"><rect fill="#FFF3EE" height="47.9375" rx="1.5" ry="1.5" style="stroke:#DCDFE8;stroke-width:0.5;" width="97.2793" x="379" y="37"/><text fill="#1A1B26" font-family="Helvetica" font-size="12" font-weight="bold" lengthAdjust="spacing" textLength="59.3906" x="389" y="58.1387">Obsidian</text><text fill="#1A1B26" font-family="Helvetica" font-size="12" lengthAdjust="spacing" textLength="77.2793" x="389" y="72.1074">or any editor</text></g><!--entity buffer--><g id="elem_buffer"><rect fill="#FFF3EE" height="47.9375" rx="1.5" ry="1.5" style="stroke:#DCDFE8;stroke-width:0.5;" width="105.6641" x="258.5" y="37"/><text fill="#1A1B26" font-family="Helvetica" font-size="12" font-weight="bold" lengthAdjust="spacing" textLength="85.6641" x="268.5" y="58.1387">/&lt;kind&gt; new</text><text fill="#1A1B26" font-family="Helvetica" font-size="12" font-weight="bold" lengthAdjust="spacing" textLength="84.4746" x="268.5" y="72.1074">/&lt;kind&gt; edit</text></g><!--entity interview--><g id="elem_interview"><rect fill="#FFF3EE" height="33.9688" rx="1.5" ry="1.5" style="stroke:#DCDFE8;stroke-width:0.5;" width="144.0898" x="490.5" y="44"/><text fill="#1A1B26" font-family="Helvetica" font-size="12" font-weight="bold" lengthAdjust="spacing" textLength="124.0898" x="500.5" y="65.1387">/questions &lt;kind&gt;</text></g><!--entity raw--><g id="elem_raw"><rect fill="#FFEDE5" height="47.9375" rx="1.5" ry="1.5" style="stroke:#DCDFE8;stroke-width:0.5;" width="211.0449" x="253" y="165"/><text fill="#1A1B26" font-family="Helvetica" font-size="12" font-weight="bold" lengthAdjust="spacing" textLength="141.668" x="263" y="186.1387">raw/&lt;kind&gt;/&lt;id&gt;.md</text><text fill="#1A1B26" font-family="Helvetica" font-size="12" lengthAdjust="spacing" textLength="191.0449" x="263" y="200.1074">freeform &#183; the filename is the id</text></g><!--entity transcripts--><g id="elem_transcripts"><rect fill="#FFEDE5" height="47.9375" rx="1.5" ry="1.5" style="stroke:#DCDFE8;stroke-width:0.5;" width="167.832" x="478.5" y="165"/><text fill="#1A1B26" font-family="Helvetica" font-size="12" font-weight="bold" lengthAdjust="spacing" textLength="104.6191" x="488.5" y="186.1387">raw/interviews/</text><text fill="#1A1B26" font-family="Helvetica" font-size="12" lengthAdjust="spacing" textLength="147.832" x="488.5" y="200.1074">timestamped transcripts</text></g><!--entity ingest--><g id="elem_ingest"><rect fill="#F2EDFA" height="47.9375" rx="1.5" ry="1.5" style="stroke:#DCDFE8;stroke-width:0.5;" width="120.1602" x="1159.5" y="370"/><text fill="#1A1B26" font-family="Helvetica" font-size="12" font-weight="bold" lengthAdjust="spacing" textLength="100.1602" x="1169.5" y="391.1387">/ingest &lt;kind&gt;</text><text fill="#1A1B26" font-family="Helvetica" font-size="12" lengthAdjust="spacing" textLength="87.1934" x="1169.5" y="405.1074">notes &#8594; pages</text></g><!--entity ingestI--><g id="elem_ingestI"><rect fill="#F2EDFA" height="47.9375" rx="1.5" ry="1.5" style="stroke:#DCDFE8;stroke-width:0.5;" width="175.0332" x="490" y="370"/><text fill="#1A1B26" font-family="Helvetica" font-size="12" font-weight="bold" lengthAdjust="spacing" textLength="114.4336" x="500" y="391.1387">/ingest interview</text><text fill="#1A1B26" font-family="Helvetica" font-size="12" lengthAdjust="spacing" textLength="155.0332" x="500" y="405.1074">one transcript, every kind</text></g><!--entity adopt--><g id="elem_adopt"><rect fill="#F2EDFA" height="47.9375" rx="1.5" ry="1.5" style="stroke:#DCDFE8;stroke-width:0.5;" width="162.2598" x="679.5" y="370"/><text fill="#1A1B26" font-family="Helvetica" font-size="12" font-weight="bold" lengthAdjust="spacing" textLength="90.082" x="689.5" y="391.1387">/ingest adopt</text><text fill="#1A1B26" font-family="Helvetica" font-size="12" lengthAdjust="spacing" textLength="142.2598" x="689.5" y="405.1074">page &#8594; note &#183; no model</text></g><!--entity curator--><g id="elem_curator"><rect fill="#F2EDFA" height="47.9375" rx="1.5" ry="1.5" style="stroke:#DCDFE8;stroke-width:0.5;" width="116.9961" x="856" y="370"/><text fill="#1A1B26" font-family="Helvetica" font-size="12" font-weight="bold" lengthAdjust="spacing" textLength="53.9531" x="866" y="391.1387">/curator</text><text fill="#1A1B26" font-family="Helvetica" font-size="12" lengthAdjust="spacing" textLength="96.9961" x="866" y="405.1074">may restructure</text></g><!--entity reviewer--><g id="elem_reviewer"><rect fill="#F2EDFA" height="47.9375" rx="1.5" ry="1.5" style="stroke:#DCDFE8;stroke-width:0.5;" width="158.9902" x="987" y="370"/><text fill="#1A1B26" font-family="Helvetica" font-size="12" font-weight="bold" lengthAdjust="spacing" textLength="63.6563" x="997" y="391.1387">/reviewer</text><text fill="#1A1B26" font-family="Helvetica" font-size="12" lengthAdjust="spacing" textLength="138.9902" x="997" y="405.1074">may only correct prose</text></g><!--entity gate--><g id="elem_gate"><rect fill="#E8DEF8" height="50.2656" rx="1.5" ry="1.5" style="stroke:#DCDFE8;stroke-width:0.5;" width="255.4707" x="633" y="566"/><text fill="#1A1B26" font-family="Helvetica" font-size="14" font-weight="bold" lengthAdjust="spacing" textLength="93.2832" x="643" y="588.9951">review gate</text><text fill="#1A1B26" font-family="Helvetica" font-size="12" lengthAdjust="spacing" textLength="235.4707" x="643" y="603.4355">one diff at a time &#183; accept &#183; reject &#183; edit</text></g><!--entity corpus--><g id="elem_corpus"><rect fill="#E9F0FA" height="75.875" rx="1.5" ry="1.5" style="stroke:#DCDFE8;stroke-width:0.5;" width="300.9277" x="610" y="711"/><text fill="#1A1B26" font-family="Helvetica" font-size="12" font-weight="bold" lengthAdjust="spacing" textLength="45.5508" x="620" y="732.1387">corpus</text><text fill="#1A1B26" font-family="Helvetica" font-size="12" lengthAdjust="spacing" textLength="245.1855" x="620" y="746.1074">characters/ &#183; places/ &#183; factions/ &#183; themes/</text><text fill="#1A1B26" font-family="Helvetica" font-size="12" lengthAdjust="spacing" textLength="280.9277" x="620" y="760.0762">timeline/moments/ &#183; timeline/arcs/ &#183; situations/</text><text fill="#1A1B26" font-family="Helvetica" font-size="12" font-style="italic" lengthAdjust="spacing" textLength="234.8262" x="620" y="774.0449">every page cites the note it came from</text></g><!--entity ledger--><g id="elem_ledger"><rect fill="#E3ECF8" height="47.9375" rx="1.5" ry="1.5" style="stroke:#DCDFE8;stroke-width:0.5;" width="67.8711" x="611.5" y="957"/><text fill="#1A1B26" font-family="Helvetica" font-size="12" font-weight="bold" lengthAdjust="spacing" textLength="47.8711" x="621.5" y="978.1387">ledger/</text><text fill="#1A1B26" font-family="Helvetica" font-size="12" lengthAdjust="spacing" textLength="37.7227" x="621.5" y="992.1074">replay</text></g><!--entity wiki--><g id="elem_wiki"><rect fill="#E3ECF8" height="47.9375" rx="1.5" ry="1.5" style="stroke:#DCDFE8;stroke-width:0.5;" width="80.7969" x="694" y="957"/><text fill="#1A1B26" font-family="Helvetica" font-size="12" font-weight="bold" lengthAdjust="spacing" textLength="31.6758" x="704" y="978.1387">wiki/</text><text fill="#1A1B26" font-family="Helvetica" font-size="12" lengthAdjust="spacing" textLength="60.7969" x="704" y="992.1074">/wiki build</text></g><!--entity manuscript--><g id="elem_manuscript"><rect fill="#E3ECF8" height="47.9375" rx="1.5" ry="1.5" style="stroke:#DCDFE8;stroke-width:0.5;" width="121.9531" x="789.5" y="957"/><text fill="#1A1B26" font-family="Helvetica" font-size="12" font-weight="bold" lengthAdjust="spacing" textLength="101.9531" x="799.5" y="978.1387">manuscript.md</text><text fill="#1A1B26" font-family="Helvetica" font-size="12" lengthAdjust="spacing" textLength="43.125" x="799.5" y="992.1074">/export</text></g><g id="elem_GMN37"><path d="M472,1175 L472,1368.9219 A0,0 0 0 0 472,1368.9219 L819.1152,1368.9219 A0,0 0 0 0 819.1152,1368.9219 L819.1152,1185 L809.1152,1175 L649.5,1175 L645.5,1005.16 L641.5,1175 L472,1175 A0,0 0 0 0 472,1175 " fill="#FEFFDD" style="stroke:#181818;stroke-width:0.5;"/><path d="M809.1152,1175 L809.1152,1185 L819.1152,1185 L809.1152,1175 " fill="#FEFFDD" style="stroke:#181818;stroke-width:0.5;"/><text fill="#000000" font-family="Helvetica" font-size="14" font-weight="bold" lengthAdjust="spacing" textLength="326.1152" x="478" y="1192.9951">Every write path into the computed layer</text><text fill="#000000" font-family="Helvetica" font-size="12" lengthAdjust="spacing" textLength="148.9746" x="478" y="1207.4355">&#183; replay, on every load &#8594;</text><text fill="#000000" font-family="Helvetica" font-size="12" font-weight="bold" lengthAdjust="spacing" textLength="47.8711" x="630.7891" y="1207.4355">ledger/</text><text fill="#000000" font-family="Helvetica" font-size="12" lengthAdjust="spacing" textLength="3.8145" x="478" y="1221.4043">&#183;</text><text fill="#000000" font-family="Helvetica" font-size="12" font-weight="bold" lengthAdjust="spacing" textLength="69.8027" x="485.6289" y="1221.4043">/wiki build</text><text fill="#000000" font-family="Helvetica" font-size="12" lengthAdjust="spacing" textLength="10.0547" x="559.2461" y="1221.4043">&#8594;</text><text fill="#000000" font-family="Helvetica" font-size="12" font-weight="bold" lengthAdjust="spacing" textLength="31.6758" x="573.1152" y="1221.4043">wiki/</text><text fill="#000000" font-family="Helvetica" font-size="12" lengthAdjust="spacing" textLength="3.8145" x="478" y="1235.373">&#183;</text><text fill="#000000" font-family="Helvetica" font-size="12" font-weight="bold" lengthAdjust="spacing" textLength="48.75" x="485.6289" y="1235.373">/export</text><text fill="#000000" font-family="Helvetica" font-size="12" lengthAdjust="spacing" textLength="10.0547" x="538.1934" y="1235.373">&#8594;</text><text fill="#000000" font-family="Helvetica" font-size="12" font-weight="bold" lengthAdjust="spacing" textLength="101.9531" x="552.0625" y="1235.373">manuscript.md</text><text fill="#000000" font-family="Helvetica" font-size="12" lengthAdjust="spacing" textLength="3.8145" x="478" y="1249.3418">&#183;</text><text fill="#000000" font-family="Helvetica" font-size="12" font-weight="bold" lengthAdjust="spacing" textLength="46.6465" x="485.6289" y="1249.3418">/ingest</text><text fill="#000000" font-family="Helvetica" font-size="12" lengthAdjust="spacing" textLength="22.5762" x="536.0898" y="1249.3418">and</text><text fill="#000000" font-family="Helvetica" font-size="12" font-weight="bold" lengthAdjust="spacing" textLength="53.9531" x="562.4805" y="1249.3418">/curator</text><text fill="#000000" font-family="Helvetica" font-size="12" lengthAdjust="spacing" textLength="10.0547" x="620.248" y="1249.3418">&#8594;</text><text fill="#000000" font-family="Helvetica" font-size="12" font-weight="bold" lengthAdjust="spacing" textLength="46.5996" x="634.1172" y="1249.3418">log.md</text><text fill="#000000" font-family="Helvetica" font-size="12" lengthAdjust="spacing" textLength="82.5352" x="680.7168" y="1249.3418">, append-only</text><text fill="#000000" font-family="Helvetica" font-size="12" lengthAdjust="spacing" textLength="3.8145" x="478" y="1263.3105">&#160;</text><text fill="#000000" font-family="Helvetica" font-size="12" lengthAdjust="spacing" textLength="217.1953" x="478" y="1277.2793">No proposal can reach any of these.</text><text fill="#000000" font-family="Helvetica" font-size="12" font-weight="bold" lengthAdjust="spacing" textLength="46.002" x="699.0098" y="1277.2793">.litrpg/</text><text fill="#000000" font-family="Helvetica" font-size="12" lengthAdjust="spacing" textLength="3.8145" x="745.0117" y="1277.2793">,</text><text fill="#000000" font-family="Helvetica" font-size="12" font-weight="bold" lengthAdjust="spacing" textLength="47.8711" x="478" y="1291.248">ledger/</text><text fill="#000000" font-family="Helvetica" font-size="12" lengthAdjust="spacing" textLength="3.8145" x="525.8711" y="1291.248">,</text><text fill="#000000" font-family="Helvetica" font-size="12" font-weight="bold" lengthAdjust="spacing" textLength="29.4844" x="533.5" y="1291.248">raw/</text><text fill="#000000" font-family="Helvetica" font-size="12" lengthAdjust="spacing" textLength="3.8145" x="562.9844" y="1291.248">,</text><text fill="#000000" font-family="Helvetica" font-size="12" font-weight="bold" lengthAdjust="spacing" textLength="101.9531" x="570.6133" y="1291.248">manuscript.md</text><text fill="#000000" font-family="Helvetica" font-size="12" lengthAdjust="spacing" textLength="22.5762" x="676.3809" y="1291.248">and</text><text fill="#000000" font-family="Helvetica" font-size="12" font-weight="bold" lengthAdjust="spacing" textLength="31.6758" x="702.7715" y="1291.248">wiki/</text><text fill="#000000" font-family="Helvetica" font-size="12" lengthAdjust="spacing" textLength="19.6699" x="738.2617" y="1291.248">are</text><text fill="#000000" font-family="Helvetica" font-size="12" lengthAdjust="spacing" textLength="284.9824" x="478" y="1305.2168">refused by path before their content is read, so</text><text fill="#000000" font-family="Helvetica" font-size="12" lengthAdjust="spacing" textLength="269.1328" x="478" y="1319.1855">nothing a model returns can land here at all.</text><text fill="#000000" font-family="Helvetica" font-size="12" lengthAdjust="spacing" textLength="3.8145" x="478" y="1333.1543">&#160;</text><text fill="#000000" font-family="Helvetica" font-size="12" font-style="italic" lengthAdjust="spacing" textLength="310.1719" x="478" y="1347.123">Hand edits are lost on the next recompute &#8212; which</text><text fill="#000000" font-family="Helvetica" font-size="12" font-style="italic" lengthAdjust="spacing" textLength="146.584" x="478" y="1361.0918">is the deal, not a defect.</text></g><g id="elem_GMN40"><path d="M1243,558 L1243,623.875 A0,0 0 0 0 1243,623.875 L1552.334,623.875 A0,0 0 0 0 1552.334,623.875 L1552.334,568 L1542.334,558 L1372.14,558 L1240.62,418.13 L1364.14,558 L1243,558 A0,0 0 0 0 1243,558 " fill="#FEFFDD" style="stroke:#181818;stroke-width:0.5;"/><path d="M1542.334,558 L1542.334,568 L1552.334,568 L1542.334,558 " fill="#FEFFDD" style="stroke:#181818;stroke-width:0.5;"/><text fill="#000000" font-family="Helvetica" font-size="12" lengthAdjust="spacing" textLength="60.4277" x="1249" y="574.1387">Each pass</text><text fill="#000000" font-family="Helvetica" font-size="12" font-weight="bold" lengthAdjust="spacing" textLength="146.5195" x="1313.2422" y="574.1387">reads the corpus first</text><text fill="#000000" font-family="Helvetica" font-size="12" lengthAdjust="spacing" textLength="60.7969" x="1459.7617" y="574.1387">: `/ingest`</text><text fill="#000000" font-family="Helvetica" font-size="12" lengthAdjust="spacing" textLength="288.334" x="1249" y="588.1074">to update rather than duplicate, `/ingest adopt`</text><text fill="#000000" font-family="Helvetica" font-size="12" lengthAdjust="spacing" textLength="150.2227" x="1249" y="602.0762">to find the pages with no</text><text fill="#000000" font-family="Helvetica" font-size="12" font-weight="bold" lengthAdjust="spacing" textLength="49.8984" x="1403.0371" y="602.0762">source:</text><text fill="#000000" font-family="Helvetica" font-size="12" lengthAdjust="spacing" textLength="23.0039" x="1456.75" y="602.0762">yet.</text><text fill="#000000" font-family="Helvetica" font-size="12" lengthAdjust="spacing" textLength="275.3906" x="1249" y="616.0449">Not drawn &#8212; it would cross every arrow here.</text></g><g id="elem_GMN43"><path d="M920,544 L920,587 L888.06,591 L920,595 L920,637.8125 A0,0 0 0 0 920,637.8125 L1229.2754,637.8125 A0,0 0 0 0 1229.2754,637.8125 L1229.2754,554 L1219.2754,544 L920,544 A0,0 0 0 0 920,544 " fill="#FEFFDD" style="stroke:#181818;stroke-width:0.5;"/><path d="M1219.2754,544 L1219.2754,554 L1229.2754,554 L1219.2754,544 " fill="#FEFFDD" style="stroke:#181818;stroke-width:0.5;"/><text fill="#000000" font-family="Helvetica" font-size="12" font-weight="bold" lengthAdjust="spacing" textLength="21.7031" x="926" y="560.1387">P3.</text><text fill="#000000" font-family="Helvetica" font-size="12" lengthAdjust="spacing" textLength="241.5" x="951.5176" y="560.1387">Every write above reaches you as a diff.</text><text fill="#000000" font-family="Helvetica" font-size="12" lengthAdjust="spacing" textLength="288.2754" x="926" y="574.1074">Idempotency is what makes that bearable &#8212; an</text><text fill="#000000" font-family="Helvetica" font-size="12" lengthAdjust="spacing" textLength="242.7539" x="926" y="588.0762">unchanged note produces no diffs at all.</text><text fill="#000000" font-family="Helvetica" font-size="12" lengthAdjust="spacing" textLength="3.8145" x="926" y="602.0449">&#160;</text><text fill="#000000" font-family="Helvetica" font-size="12" font-weight="bold" lengthAdjust="spacing" textLength="46.6465" x="926" y="616.0137">/ingest</text><text fill="#000000" font-family="Helvetica" font-size="12" lengthAdjust="spacing" textLength="22.5762" x="976.4609" y="616.0137">and</text><text fill="#000000" font-family="Helvetica" font-size="12" font-weight="bold" lengthAdjust="spacing" textLength="53.9531" x="1002.8516" y="616.0137">/curator</text><text fill="#000000" font-family="Helvetica" font-size="12" lengthAdjust="spacing" textLength="61.0547" x="1060.6191" y="616.0137">append to</text><text fill="#000000" font-family="Helvetica" font-size="12" font-weight="bold" lengthAdjust="spacing" textLength="46.5996" x="1125.4883" y="616.0137">log.md</text><text fill="#000000" font-family="Helvetica" font-size="12" lengthAdjust="spacing" textLength="3.8145" x="1172.0879" y="616.0137">.</text><text fill="#000000" font-family="Helvetica" font-size="12" lengthAdjust="spacing" textLength="272.9824" x="926" y="629.9824">The other two leave nothing worth recording.</text></g><g id="elem_GMN46"><path d="M6,283 L6,504.8594 A0,0 0 0 0 6,504.8594 L324.6563,504.8594 A0,0 0 0 0 324.6563,504.8594 L324.6563,293 L314.6563,283 L274.27,283 L336.36,213.29 L266.27,283 L6,283 A0,0 0 0 0 6,283 " fill="#FEFFDD" style="stroke:#181818;stroke-width:0.5;"/><path d="M314.6563,283 L314.6563,293 L324.6563,293 L314.6563,283 " fill="#FEFFDD" style="stroke:#181818;stroke-width:0.5;"/><text fill="#000000" font-family="Helvetica" font-size="14" font-weight="bold" lengthAdjust="spacing" textLength="206.1377" x="12" y="300.9951">Every write path into raw/</text><text fill="#000000" font-family="Helvetica" font-size="12" lengthAdjust="spacing" textLength="185.7129" x="12" y="315.4355">&#183; you, in Obsidian or any editor</text><text fill="#000000" font-family="Helvetica" font-size="12" lengthAdjust="spacing" textLength="3.8145" x="12" y="329.4043">&#183;</text><text fill="#000000" font-family="Helvetica" font-size="12" font-weight="bold" lengthAdjust="spacing" textLength="84.4746" x="19.6289" y="329.4043">/&lt;kind&gt; edit</text><text fill="#000000" font-family="Helvetica" font-size="12" lengthAdjust="spacing" textLength="116.6074" x="107.918" y="329.4043">&#8212; the native buffer</text><text fill="#000000" font-family="Helvetica" font-size="12" lengthAdjust="spacing" textLength="3.8145" x="12" y="343.373">&#183;</text><text fill="#000000" font-family="Helvetica" font-size="12" font-weight="bold" lengthAdjust="spacing" textLength="222.9199" x="19.6289" y="343.373">/situation cast|place|moment|arc</text><text fill="#000000" font-family="Helvetica" font-size="12" lengthAdjust="spacing" textLength="3.8145" x="242.5488" y="343.373">,</text><text fill="#000000" font-family="Helvetica" font-size="12" lengthAdjust="spacing" textLength="7.6289" x="12" y="357.3418">&#160;&#160;</text><text fill="#000000" font-family="Helvetica" font-size="12" font-weight="bold" lengthAdjust="spacing" textLength="119.7305" x="19.6289" y="357.3418">/moment at|name</text><text fill="#000000" font-family="Helvetica" font-size="12" lengthAdjust="spacing" textLength="3.8145" x="139.3594" y="357.3418">,</text><text fill="#000000" font-family="Helvetica" font-size="12" font-weight="bold" lengthAdjust="spacing" textLength="81.8965" x="146.9883" y="357.3418">/place name</text><text fill="#000000" font-family="Helvetica" font-size="12" lengthAdjust="spacing" textLength="3.8145" x="228.8848" y="357.3418">,</text><text fill="#000000" font-family="Helvetica" font-size="12" lengthAdjust="spacing" textLength="7.6289" x="12" y="371.3105">&#160;&#160;</text><text fill="#000000" font-family="Helvetica" font-size="12" font-weight="bold" lengthAdjust="spacing" textLength="103.9922" x="19.6289" y="371.3105">/arc order|after</text><text fill="#000000" font-family="Helvetica" font-size="12" lengthAdjust="spacing" textLength="118.4063" x="127.4355" y="371.3105">&#8212; frontmatter only,</text><text fill="#000000" font-family="Helvetica" font-size="12" lengthAdjust="spacing" textLength="251.9648" x="19.6289" y="385.2793">adopting the page first if it is not here yet</text><text fill="#000000" font-family="Helvetica" font-size="12" lengthAdjust="spacing" textLength="3.8145" x="12" y="399.248">&#183;</text><text fill="#000000" font-family="Helvetica" font-size="12" font-weight="bold" lengthAdjust="spacing" textLength="53.9531" x="19.6289" y="399.248">/curator</text><text fill="#000000" font-family="Helvetica" font-size="12" lengthAdjust="spacing" textLength="22.5762" x="77.3965" y="399.248">and</text><text fill="#000000" font-family="Helvetica" font-size="12" font-weight="bold" lengthAdjust="spacing" textLength="90.082" x="103.7871" y="399.248">/ingest adopt</text><text fill="#000000" font-family="Helvetica" font-size="12" lengthAdjust="spacing" textLength="90.3809" x="197.6836" y="399.248">&#8212; the only two</text><text fill="#000000" font-family="Helvetica" font-size="12" lengthAdjust="spacing" textLength="265.6172" x="19.6289" y="413.2168">writers that are not you, and both are gated</text><text fill="#000000" font-family="Helvetica" font-size="12" lengthAdjust="spacing" textLength="3.8145" x="12" y="427.1855">&#160;</text><text fill="#000000" font-family="Helvetica" font-size="12" font-weight="bold" lengthAdjust="spacing" textLength="21.7031" x="12" y="441.1543">P6.</text><text fill="#000000" font-family="Helvetica" font-size="12" lengthAdjust="spacing" textLength="260.7598" x="37.5176" y="441.1543">None of them touches your prose. A linking</text><text fill="#000000" font-family="Helvetica" font-size="12" lengthAdjust="spacing" textLength="266.5605" x="12" y="455.123">command sets a field; the body stays yours.</text><text fill="#000000" font-family="Helvetica" font-size="12" lengthAdjust="spacing" textLength="3.8145" x="12" y="469.0918">&#160;</text><text fill="#000000" font-family="Helvetica" font-size="12" font-style="italic" lengthAdjust="spacing" textLength="297.6563" x="12" y="483.0605">resolveInsideVault refuses raw/ to every proposal</text><text fill="#000000" font-family="Helvetica" font-size="12" font-style="italic" lengthAdjust="spacing" textLength="249.082" x="12" y="497.0293">unless allowRaw is set. Those two hold it.</text></g><g id="elem_GMN49"><path d="M944,814 L944,1147.6094 L1296.6875,1147.6094 L1296.6875,824 L1286.6875,814 L944,814 " fill="#FEFFDD" style="stroke:#181818;stroke-width:0.5;"/><path d="M1286.6875,814 L1286.6875,824 L1296.6875,824 L1286.6875,814 " fill="#FEFFDD" style="stroke:#181818;stroke-width:1.0;"/><text fill="#000000" font-family="Helvetica" font-size="14" font-weight="bold" lengthAdjust="spacing" textLength="255.9102" x="950" y="831.9951">Every write path into the corpus</text><text fill="#000000" font-family="Helvetica" font-size="12" lengthAdjust="spacing" textLength="131.9238" x="950" y="846.4355">Gated &#8212; everything a</text><text fill="#000000" font-family="Helvetica" font-size="12" font-weight="bold" lengthAdjust="spacing" textLength="41.5898" x="1085.7383" y="846.4355">model</text><text fill="#000000" font-family="Helvetica" font-size="12" lengthAdjust="spacing" textLength="58.7813" x="1131.1426" y="846.4355">proposes:</text><text fill="#000000" font-family="Helvetica" font-size="12" lengthAdjust="spacing" textLength="3.8145" x="950" y="860.4043">&#183;</text><text fill="#000000" font-family="Helvetica" font-size="12" font-weight="bold" lengthAdjust="spacing" textLength="46.6465" x="957.6289" y="860.4043">/ingest</text><text fill="#000000" font-family="Helvetica" font-size="12" lengthAdjust="spacing" textLength="3.8145" x="1004.2754" y="860.4043">,</text><text fill="#000000" font-family="Helvetica" font-size="12" font-weight="bold" lengthAdjust="spacing" textLength="114.4336" x="1011.9043" y="860.4043">/ingest interview</text><text fill="#000000" font-family="Helvetica" font-size="12" lengthAdjust="spacing" textLength="3.8145" x="1126.3379" y="860.4043">,</text><text fill="#000000" font-family="Helvetica" font-size="12" font-weight="bold" lengthAdjust="spacing" textLength="90.082" x="1133.9668" y="860.4043">/ingest adopt</text><text fill="#000000" font-family="Helvetica" font-size="12" lengthAdjust="spacing" textLength="3.8145" x="950" y="874.373">&#183;</text><text fill="#000000" font-family="Helvetica" font-size="12" font-weight="bold" lengthAdjust="spacing" textLength="53.9531" x="957.6289" y="874.373">/curator</text><text fill="#000000" font-family="Helvetica" font-size="12" lengthAdjust="spacing" textLength="3.8145" x="1011.582" y="874.373">,</text><text fill="#000000" font-family="Helvetica" font-size="12" font-weight="bold" lengthAdjust="spacing" textLength="63.6563" x="1019.2109" y="874.373">/reviewer</text><text fill="#000000" font-family="Helvetica" font-size="12" lengthAdjust="spacing" textLength="3.8145" x="950" y="888.3418">&#160;</text><text fill="#000000" font-family="Helvetica" font-size="12" lengthAdjust="spacing" textLength="135.4629" x="950" y="902.3105">Ungated &#8212; everything</text><text fill="#000000" font-family="Helvetica" font-size="12" font-weight="bold" lengthAdjust="spacing" textLength="24.6094" x="1089.2773" y="902.3105">you</text><text fill="#000000" font-family="Helvetica" font-size="12" lengthAdjust="spacing" textLength="89.7422" x="1117.7012" y="902.3105">assert directly:</text><text fill="#000000" font-family="Helvetica" font-size="12" lengthAdjust="spacing" textLength="3.8145" x="950" y="916.2793">&#183;</text><text fill="#000000" font-family="Helvetica" font-size="12" font-weight="bold" lengthAdjust="spacing" textLength="84.0176" x="957.6289" y="916.2793">setAuthored</text><text fill="#000000" font-family="Helvetica" font-size="12" lengthAdjust="spacing" textLength="198.2109" x="1041.6465" y="916.2793">, syncing the page after a linking</text><text fill="#000000" font-family="Helvetica" font-size="12" lengthAdjust="spacing" textLength="282.8789" x="957.6289" y="930.248">command. A copy of what you just said, not an</text><text fill="#000000" font-family="Helvetica" font-size="12" lengthAdjust="spacing" textLength="144.4277" x="957.6289" y="944.2168">inference about it (D21)</text><text fill="#000000" font-family="Helvetica" font-size="12" lengthAdjust="spacing" textLength="3.8145" x="950" y="958.1855">&#183;</text><text fill="#000000" font-family="Helvetica" font-size="12" font-weight="bold" lengthAdjust="spacing" textLength="85.6641" x="957.6289" y="958.1855">/&lt;kind&gt; new</text><text fill="#000000" font-family="Helvetica" font-size="12" lengthAdjust="spacing" textLength="3.8145" x="1047.1074" y="958.1855">&#183;</text><text fill="#000000" font-family="Helvetica" font-size="12" font-weight="bold" lengthAdjust="spacing" textLength="85.9512" x="1054.7363" y="958.1855">/status write</text><text fill="#000000" font-family="Helvetica" font-size="12" lengthAdjust="spacing" textLength="3.8145" x="1144.502" y="958.1855">&#183;</text><text fill="#000000" font-family="Helvetica" font-size="12" font-weight="bold" lengthAdjust="spacing" textLength="129.5566" x="1152.1309" y="958.1855">/chapter new|move</text><text fill="#000000" font-family="Helvetica" font-size="12" lengthAdjust="spacing" textLength="3.8145" x="950" y="972.1543">&#183;</text><text fill="#000000" font-family="Helvetica" font-size="12" font-weight="bold" lengthAdjust="spacing" textLength="26.8887" x="957.6289" y="972.1543">/init</text><text fill="#000000" font-family="Helvetica" font-size="12" lengthAdjust="spacing" textLength="227.5664" x="984.5176" y="972.1543">, once, and never over an existing file</text><text fill="#000000" font-family="Helvetica" font-size="12" lengthAdjust="spacing" textLength="3.8145" x="950" y="986.123">&#160;</text><text fill="#000000" font-family="Helvetica" font-size="12" font-style="italic" lengthAdjust="spacing" textLength="294.3164" x="950" y="1000.0918">The gate is for writes the tool authors, not writes</text><text fill="#000000" font-family="Helvetica" font-size="12" font-style="italic" lengthAdjust="spacing" textLength="307.4707" x="950" y="1014.0605">you author. Your own typed edit is already explicit;</text><text fill="#000000" font-family="Helvetica" font-size="12" font-style="italic" lengthAdjust="spacing" textLength="291.5391" x="950" y="1028.0293">asking you to approve it twice would be theatre.</text><text fill="#000000" font-family="Helvetica" font-size="12" lengthAdjust="spacing" textLength="3.8145" x="950" y="1041.998">&#160;</text><text fill="#000000" font-family="Helvetica" font-size="12" lengthAdjust="spacing" textLength="84.0586" x="950" y="1055.9668">Safe to delete</text><text fill="#000000" font-family="Helvetica" font-size="12" font-weight="bold" lengthAdjust="spacing" textLength="28.7227" x="1037.873" y="1055.9668">only</text><text fill="#000000" font-family="Helvetica" font-size="12" lengthAdjust="spacing" textLength="143.6836" x="1070.4102" y="1055.9668">once every page cites a</text><text fill="#000000" font-family="Helvetica" font-size="12" lengthAdjust="spacing" textLength="43.9277" x="950" y="1069.9355">source.</text><text fill="#000000" font-family="Helvetica" font-size="12" font-weight="bold" lengthAdjust="spacing" textLength="90.082" x="997.7422" y="1069.9355">/ingest adopt</text><text fill="#000000" font-family="Helvetica" font-size="12" lengthAdjust="spacing" textLength="110.9063" x="1091.6387" y="1069.9355">gets a vault there;</text><text fill="#000000" font-family="Helvetica" font-size="12" font-weight="bold" lengthAdjust="spacing" textLength="26.8887" x="950" y="1083.9043">/lint</text><text fill="#000000" font-family="Helvetica" font-size="12" lengthAdjust="spacing" textLength="140.0332" x="980.7031" y="1083.9043">says how far it has got.</text><text fill="#000000" font-family="Helvetica" font-size="12" lengthAdjust="spacing" textLength="3.8145" x="950" y="1097.873">&#160;</text><text fill="#000000" font-family="Helvetica" font-size="12" font-style="italic" lengthAdjust="spacing" textLength="60.1289" x="950" y="1111.8418">Still open:</text><text fill="#000000" font-family="Helvetica" font-size="12" font-style="italic" font-weight="bold" lengthAdjust="spacing" textLength="85.6641" x="1013.9434" y="1111.8418">/&lt;kind&gt; new</text><text fill="#000000" font-family="Helvetica" font-size="12" font-style="italic" lengthAdjust="spacing" textLength="22.5762" x="1103.4219" y="1111.8418">and</text><text fill="#000000" font-family="Helvetica" font-size="12" font-style="italic" font-weight="bold" lengthAdjust="spacing" textLength="56.5195" x="1129.8125" y="1111.8418">/chapter</text><text fill="#000000" font-family="Helvetica" font-size="12" font-style="italic" lengthAdjust="spacing" textLength="61.2891" x="1190.1465" y="1111.8418">write here</text><text fill="#000000" font-family="Helvetica" font-size="12" font-style="italic" lengthAdjust="spacing" textLength="305.0508" x="950" y="1125.8105">rather than raw/, and chapters have no raw/ folder</text><text fill="#000000" font-family="Helvetica" font-size="12" font-style="italic" lengthAdjust="spacing" textLength="289.5352" x="950" y="1139.7793">to write to. That is step 4 and an open question.</text></g><!--link obsidian to raw--><g id="link_obsidian_raw"><path d="M414.84,85.11 C402.47,107.7 386.6109,136.6569 374.1909,159.3469 " fill="none" id="obsidian-to-raw" style="stroke:#6B739C;stroke-width:1.0;"/><polygon fill="#6B739C" points="371.31,164.61,379.1401,158.6359,373.7108,160.2241,372.1226,154.7947,371.31,164.61" style="stroke:#6B739C;stroke-width:1.0;"/></g><!--link buffer to raw--><g id="link_buffer_raw"><path d="M320.12,85.11 C328.55,107.7 339.2139,136.2981 347.6739,158.9881 " fill="none" id="buffer-to-raw" style="stroke:#6B739C;stroke-width:1.0;"/><polygon fill="#6B739C" points="349.77,164.61,350.3737,154.7797,348.0232,159.9251,342.8778,157.5745,349.77,164.61" style="stroke:#6B739C;stroke-width:1.0;"/></g><!--link interview to transcripts--><g id="link_interview_transcripts"><path d="M562.5,78.21 C562.5,100.15 562.5,133.42 562.5,158.56 " fill="none" id="interview-to-transcripts" style="stroke:#6B739C;stroke-width:1.0;"/><polygon fill="#6B739C" points="562.5,164.56,566.5,155.56,562.5,159.56,558.5,155.56,562.5,164.56" style="stroke:#6B739C;stroke-width:1.0;"/></g><!--link raw to ingest--><g id="link_raw_ingest"><path d="M404.37,213.09 C424.47,222.14 448.64,231.63 471.5,237 C619.37,271.74 1023.91,203.75 1153.5,283 C1185.42,302.52 1201.9296,338.1124 1210.8396,364.1824 " fill="none" id="raw-to-ingest" style="stroke:#6B739C;stroke-width:1.0;"/><polygon fill="#6B739C" points="1212.78,369.86,1213.6544,360.05,1211.163,365.1287,1206.0843,362.6373,1212.78,369.86" style="stroke:#6B739C;stroke-width:1.0;"/><text fill="#6B739C" font-family="Helvetica" font-size="10" font-weight="bold" lengthAdjust="spacing" textLength="23.1396" x="1117.5" y="255.2822">new</text><text fill="#6B739C" font-family="Helvetica" font-size="10" lengthAdjust="spacing" textLength="10.2295" x="1143.8184" y="255.2822">or</text><text fill="#6B739C" font-family="Helvetica" font-size="10" font-weight="bold" lengthAdjust="spacing" textLength="48.0127" x="1157.2266" y="255.2822">changed</text><text fill="#6B739C" font-family="Helvetica" font-size="10" lengthAdjust="spacing" textLength="21.1523" x="1208.418" y="255.2822">only</text><text fill="#6B739C" font-family="Helvetica" font-size="10" font-style="italic" lengthAdjust="spacing" textLength="104.1064" x="1121.4819" y="266.9229">source_hash decides</text></g><!--link transcripts to ingestI--><g id="link_transcripts_ingestI"><path d="M564.22,213.29 C567.11,252.44 572.4778,325.0263 575.3578,363.9963 " fill="none" id="transcripts-to-ingestI" style="stroke:#6B739C;stroke-width:1.0;"/><polygon fill="#6B739C" points="575.8,369.98,579.1258,360.7097,575.4315,364.9936,571.1476,361.2993,575.8,369.98" style="stroke:#6B739C;stroke-width:1.0;"/></g><!--link ingest to gate--><g id="link_ingest_gate"><path d="M1212.7,418 C1203.71,443.94 1185.18,485.1 1153.5,505 C1108.15,533.49 965.51,514.22 913.5,527 C877.1,535.95 843.491,549.6111 813.951,563.3411 " fill="none" id="ingest-to-gate" style="stroke:#6B739C;stroke-width:1.0;"/><polygon fill="#6B739C" points="808.51,565.87,818.3575,565.7039,813.0442,563.7625,814.9855,558.4493,808.51,565.87" style="stroke:#6B739C;stroke-width:1.0;"/></g><!--link ingestI to gate--><g id="link_ingestI_gate"><path d="M596.56,418.28 C615.34,440.92 645.1,476.03 672.5,505 C692.5,526.14 711.9107,544.8986 729.7207,561.5786 " fill="none" id="ingestI-to-gate" style="stroke:#6B739C;stroke-width:1.0;"/><polygon fill="#6B739C" points="734.1,565.68,730.2654,556.6083,730.4506,562.2621,724.7968,562.4474,734.1,565.68" style="stroke:#6B739C;stroke-width:1.0;"/></g><!--link adopt to gate--><g id="link_adopt_gate"><path d="M760.5,418.13 C760.5,455.36 760.5,522.2 760.5,559.98 " fill="none" id="adopt-to-gate" style="stroke:#6B739C;stroke-width:1.0;"/><polygon fill="#6B739C" points="760.5,565.98,764.5,556.98,760.5,560.98,756.5,556.98,760.5,565.98" style="stroke:#6B739C;stroke-width:1.0;"/></g><!--link curator to gate--><g id="link_curator_gate"><path d="M902.97,418.04 C890.91,441.11 870.67,477.1 848.5,505 C830.79,527.28 811.9958,545.5453 793.8258,561.6853 " fill="none" id="curator-to-gate" style="stroke:#6B739C;stroke-width:1.0;"/><polygon fill="#6B739C" points="789.34,565.67,798.7252,562.6836,793.0782,562.3495,793.4123,556.7025,789.34,565.67" style="stroke:#6B739C;stroke-width:1.0;"/></g><!--link reviewer to gate--><g id="link_reviewer_gate"><path d="M1054.03,418.1 C1039.5,442.96 1013.23,482.01 980.5,505 C954.85,523.01 942.9,516.14 913.5,527 C880.9,539.05 850.4572,551.4454 821.5972,563.6354 " fill="none" id="reviewer-to-gate" style="stroke:#6B739C;stroke-width:1.0;"/><polygon fill="#6B739C" points="816.07,565.97,825.9172,566.1529,820.676,564.0245,822.8044,558.7833,816.07,565.97" style="stroke:#6B739C;stroke-width:1.0;"/></g><!--link gate to corpus--><g id="link_gate_corpus"><path d="M760.5,616.03 C760.5,641.33 760.5,675.49 760.5,704.86 " fill="none" id="gate-to-corpus" style="stroke:#6B739C;stroke-width:1.0;"/><polygon fill="#6B739C" points="760.5,710.86,764.5,701.86,760.5,705.86,756.5,701.86,760.5,710.86" style="stroke:#6B739C;stroke-width:1.0;"/><text fill="#6B739C" font-family="Helvetica" font-size="10" lengthAdjust="spacing" textLength="46.0449" x="761.5" y="661.2822">accepted</text></g><!--link gate to raw--><g id="link_gate_raw"><path d="M632.88,578.44 C533.71,566.56 407.64,544.15 374.5,505 C337.44,461.22 349.7782,284.1155 355.6782,219.0455 " fill="none" id="gate-to-raw" style="stroke:#D2481A;stroke-width:1.0;"/><polygon fill="#D2481A" points="356.22,213.07,351.4236,221.672,355.7685,218.0496,359.3909,222.3944,356.22,213.07" style="stroke:#D2481A;stroke-width:1.0;"/><text fill="#6B739C" font-family="Helvetica" font-size="10" lengthAdjust="spacing" textLength="16.4111" x="375.5" y="391.7822">the</text><text fill="#6B739C" font-family="Helvetica" font-size="10" font-weight="bold" lengthAdjust="spacing" textLength="23.9355" x="395.0898" y="391.7822">only</text><text fill="#6B739C" font-family="Helvetica" font-size="10" lengthAdjust="spacing" textLength="55.8594" x="422.2041" y="391.7822">two writers</text><text fill="#6B739C" font-family="Helvetica" font-size="10" lengthAdjust="spacing" textLength="80.9863" x="386.2886" y="403.4229">that are not you</text></g><!--link corpus to ledger--><g id="link_corpus_ledger"><path d="M709.9,787.04 C701.44,795.13 693.48,804.23 687.5,814 C659.56,859.63 650.7049,917.1857 647.5749,950.8857 " fill="none" id="corpus-to-ledger" style="stroke:#6B739C;stroke-width:1.0;"/><polygon fill="#6B739C" points="647.02,956.86,651.8352,948.2685,647.4824,951.8814,643.8695,947.5286,647.02,956.86" style="stroke:#6B739C;stroke-width:1.0;"/></g><!--link corpus to wiki--><g id="link_corpus_wiki"><path d="M756.29,787.21 C750.88,835.14 742.2933,911.0479 737.7933,950.8979 " fill="none" id="corpus-to-wiki" style="stroke:#6B739C;stroke-width:1.0;"/><polygon fill="#6B739C" points="737.12,956.86,742.1046,948.3657,737.6811,951.8916,734.1552,947.468,737.12,956.86" style="stroke:#6B739C;stroke-width:1.0;"/></g><!--link corpus to manuscript--><g id="link_corpus_manuscript"><path d="M775.06,787.21 C793.82,835.14 823.664,911.4224 839.254,951.2724 " fill="none" id="corpus-to-manuscript" style="stroke:#6B739C;stroke-width:1.0;"/><polygon fill="#6B739C" points="841.44,956.86,841.8861,947.0213,839.6184,952.2036,834.436,949.9359,841.44,956.86" style="stroke:#6B739C;stroke-width:1.0;"/></g><!--link corpus to GMN49--><g id="link_corpus_GMN49"><path d="M868.7,787.11 C887.14,795.01 905.74,804.02 922.5,814 C929.63,818.25 936.76,822.74 943.86,827.44 " fill="none" id="corpus-GMN49" style="stroke:#6B739C;stroke-width:1.0;stroke-dasharray:7.0,7.0;"/></g><!--SRC=[fLZDZXkv4RxhAOYPWnD18-tysRFZjG6lBMK72BoBzMw080vYgfijqMwH7P8ziX87o2aF4EHTSi-Zx9FagofsgsV6OmVn76mroIhMxrTLVA1-MXkbsxJsmRgLgcg_dIZZIfKy_JSTFHWzK4gzrTTQ7RtLGJMrTgdTr5FwE4hnUgLANyHPQVKgw4sSzSoEYDcqmLbcGXTvPrHQqqNuDwfCeynx6rEaAwFUNIfpRS9EwH3yLbc7rGJImeUcZU3Jw1WD3g-3RrThtWlcsfgjMkba9af3UEOW5oqDf1XmK9QO1BCopWGGbAeAVgDicghlNRtZawA2sWQRS5FGsvdwvU__KbkRSD_MAwStfWGNyxumJRBUnOagSSn1t0631r5vh1M-zcs088Lk8-cl4uHGM_f_ezyPaWT4cpqxNKz7e-GRiiZIfmJvIXjCGNkZKNndNQF9RajTl5l13AvyZZk2EYpvRt0YhdNfj-nPNKSps2bDfTiwBRnBBw6EElZErDScsK8VVFpKA_iNeuvF1flEboQQHXsV3HQ3TkzeyUJXOF4P-JBB-73vwFJhulOctV3P0oB2LqCJa5MqMzL6_NMarBS-b2PqnYZAobnWTS3xM1yl8HbEtZPTnN_OoOi1uQ5EHtyRNjQ0IA_-nwko6dUlIZ1H14FZKgOGlOxfiWVgjtg7coLe8hB0gDgc2kxFuVJJprUGiJRTaOa4SCJlmimeaCmqnKjEsnp8X-N9sSMnLl_vjzh0PxKwVAJFbikI5Wg_QLfAWyEJvNcbBqQTaWV7jFrxtqeU7AZ3nOl5myKfQxyt-y5u_FqoMgIo6uzVEzoctKwPqYOV3fI6p7aNz8l5wNn-cths3UnRFbNER8d1Ve5uZCVCOzbM5Ono7uS_joPo6YeXpLJ03XCO6Jf26BXNxuJK4r3YjASasK5RsFWJkX8Oo2MpRspvTBefIUWg65Fvi26MbF-LhGs11EKvVTkI1G8nYJ9_CJ__6DzUtZWZfibke9RUD70EnqmHR9CYSnfyzno7ofrsoYNlQzK4ttY09kdrQ76sU7vNBro-mcsz0LyxvmdyVld7Fn7sAnEpHVdGuU9a_cBnx3uUlHuS40JvlRIJ3Evqou3ZrUTO0iMQHEn85XQAn2CbdPUOPcvyx5vUHGl0zu7ORFGEcp65jaXjC4oSj-ybbofZUdgE6nGLEaKcZiAcEzRp6VhbZ4H-wINQK4dBo5N5jr0HO5lOY30cDvs2zDlRRdhoP53fnBIbhIgbYPh2XRZhWge8_GhcBOc6NvHAB1mHgiFvnOlvukA6OETqxCTzLPmW7-4ffZGbINIoEByhqNWiLPLiKgm1aWLS7sV438r2OUHdfRbqoGSZL9n9VDVMcTd6Ru25URTRrA6GbMXJguNyjPlD97uu30ekpvHV70msgO9oZk1mDXENIia_d7-z-EgkHsjJhapWN0i6ukwOHbP1Spf_lhYuJRErxonJpEWNWCdM4iZyUG_HHhjMuZ_ZnSoyRtmGb-mtUtAk0qT7H-gOG_s4Vl-_VwCUVu-EdX82ZJAOTfzxbAIL0R1qGfom4ATV90GX7x7FwNofncF6UuLyGmojOIfJqYToYhmirUnFQntNd1PeD6QpqH3rzjokEa5FMT2pBn8q2qZSALT67Jxr2m8n_MS76lr2d_xzIfRkZAKxbmQLWfOwoQtUHMxZfD4LCzql7QSlCSw1VPcp7TseRFqXb_e_YdDnW6uQZyckC2zVITKyHEGVDQ3KNo1xgF9rWfwBe5zanYmVYIhvD5oXL1b-xpDWDE9CpZslhpfYfPuycNFYi_H8VtJYWz4Wjp0rjKuupDX72Jr1GEMAKtjTicA3l9UZWFPzBiD8SYWdUdz4ChRVlfNI_J695nmZBmzhJdUtNp41mg1fC60TaMT687_fSvdMDM3CGG5ThBcNWXcWPJHJa4_H2uPc1S4ce1ceCb7IGyYlMz9bOR9Av7D6g0hZIAcMEp7daZeO6a-CfVOJgE1uJe4Wg0RHWyJbmgLp6naCYYUwBfANYfbQ6t2WgAffWb5gDlkEnp4KaTpAUYINbo79cVU9S5Ay9nFMsXPh93fHvjQfDBgUS8XIWQm0grCSe0cLGkLEm8ZzmM1EvgDPaGm35U9m1aGxJKwwL6-omzw00j7KDYMb4Lm6JMXISwficnf34KsMRsvq8vcaiZcTkKkI6H4zoNWi47O9U-zCchA7KvuIILLKgwrlwr8Lw1pYZPcNh3YzhMAmgtKY3HbJoFS_d4x1V9WMUkclZKGEHA5cbdeYxX58WAlIR1hmSiNkvW0gC-dIe7ulQ_64TY1eNKPcAR28px95JIVzY6SSklgJiI-nJkRQPm19nEsts1h8L1jzRVeWsoBTrXmVeSJtz7wVKnMx7o4eAoGzOP09JUZTlA9k32jz2jyOFzWO7AteGI2T5C_-RD-S80TY-i0zpmVfPpwWWv4qPUF88YpsWGO3ITCPdrTveJi9EiN3vGTT9HEo3EXgNDheX1MkadAS8r7UKoG29RILhIZ0REJ4uQn44FPI3nmZdhhPPVSwosIqzNnLhXlgTjcGWWPlh7cLmhEKWFZX8GNeIsfJ1SCsY82sYyqWFVDKFSE0ws3p5OW01XjY5mq11fGnTVcOPLdwSgSm3ks4E6PyGHFlwsjpvU1IypjwgyZ0bjzjw1bBEiOChXbTMbSRf1sYrsz_HA64gN3d517fevJcjKTosa-ZJNwK-bnvoeT-myzDPDp1-vGck2OqXQcwEUtoJZcPg8-ELvExphlhP3wq7rx8RZ-xrSTa6OzXMegA64r8-SsftlNYm4BF-4N1S0MBErVSY3sELsYqzsVlKN9puHkkPWmyX4vlMyWTjIqpm3kci0uP1f1YFCDWX43-rOkJur_VJb1f87CU9fs0wsp-VX7WrP10E8YSl3OtohHbgtfS8m4iuuwdVu0C_2B9psQOv2NI2AkuoKAeLFlNmTGDsVBM4aKLsSonna3CkrDwJmdyZ9DsDDSJo113NLED0XIzfsfZq-DCgkdnITub44s0qK083vgqjJ2GL90bLssTK3L01hfNkYAXK2zhamRj7schxWnG6XHIhAOVmOALPE8rfnP1jNaiQ0ydqtwaZ5oZQbKwa61hcZ9zokdvAjcwLXxeVtd7SrsL42zXGPA7hiZQ3-imPRDuAXFWLYaNakWLqXMTa12ctER229JIyk0QasdGXHCBmdx8fBg7enj9_by0]--></g></svg>